<svg width="27" height="26" viewBox="0 0 27 26" fill="none" xmlns="http://www.w3.org/2000/svg">
<path d="M25.0241 0.486908H1.00096C0.735493 0.486908 0.480893 0.612151 0.293176 0.835083C0.105458 1.05802 0 1.36038 0 1.67565V21.8843C0 22.5149 0.210917 23.1196 0.586352 23.5654C0.961786 24.0113 1.47099 24.2618 2.00193 24.2618H24.0232C24.5541 24.2618 25.0633 24.0113 25.4387 23.5654C25.8142 23.1196 26.0251 22.5149 26.0251 21.8843V1.67565C26.0251 1.36038 25.9196 1.05802 25.7319 0.835083C25.5442 0.612151 25.2896 0.486908 25.0241 0.486908ZM13.0125 13.1396L3.5747 2.8644H22.4504L13.0125 13.1396ZM9.34776 12.3744L2.00193 20.3701V4.37856L9.34776 12.3744ZM10.8292 13.9866L12.3306 15.6285C12.5153 15.8299 12.7569 15.9416 13.0075 15.9416C13.2582 15.9416 13.4998 15.8299 13.6844 15.6285L15.1859 13.9866L22.4429 21.8843H3.5747L10.8292 13.9866ZM16.6773 12.3744L24.0232 4.37707V20.3716L16.6773 12.3744Z" fill="#B4B4B4"/>
</svg>
