<svg width="20" height="26" viewBox="0 0 20 26" fill="none" xmlns="http://www.w3.org/2000/svg">
<path fill-rule="evenodd" clip-rule="evenodd" d="M16.3637 12.5838H3.63639C2.63223 12.5838 1.81821 13.3059 1.81821 14.1967V22.2612C1.81821 23.152 2.63223 23.8741 3.63639 23.8741H16.3637C17.3678 23.8741 18.1818 23.152 18.1818 22.2612V14.1967C18.1818 13.3059 17.3678 12.5838 16.3637 12.5838ZM3.63636 10.9707C1.62805 10.9707 0 12.4149 0 14.1965V22.261C0 24.0426 1.62806 25.4868 3.63636 25.4868H16.3636C18.3719 25.4868 20 24.0426 20 22.261V14.1965C20 12.4149 18.3719 10.9707 16.3636 10.9707H3.63636ZM3.63641 6.13207C3.63641 4.11525 4.84931 2.25163 6.81823 1.24322C8.78714 0.234806 11.2129 0.234805 13.1819 1.24321C15.1508 2.25162 16.3637 4.11524 16.3637 6.13207V10.9708H14.5455V6.13207C14.5455 3.90512 12.5104 2.09982 10.0001 2.09981C7.48968 2.09981 5.4546 3.9051 5.45459 6.13205V10.9708H3.63641V6.13207Z" fill="#9E9E9E"/>
</svg>
