<svg width="25" height="26" viewBox="0 0 25 26" fill="none" xmlns="http://www.w3.org/2000/svg">
<path d="M24.4842 1.01922C24.2596 0.794752 23.9792 0.634221 23.6719 0.554161C23.3646 0.474101 23.0415 0.477408 22.7359 0.563739H22.7192L1.29155 7.06549C0.943684 7.16574 0.634493 7.36934 0.40495 7.64929C0.175407 7.92924 0.0363489 8.27233 0.0062042 8.6331C-0.0239405 8.99387 0.0562509 9.35528 0.236152 9.66944C0.416052 9.9836 0.687169 10.2357 1.01357 10.3923L10.4938 15.0096L15.1044 24.4842C15.2478 24.7903 15.4758 25.0489 15.7615 25.2295C16.0471 25.4101 16.3785 25.5052 16.7165 25.5035C16.7678 25.5035 16.8192 25.5013 16.8705 25.4968C17.231 25.4676 17.5739 25.3289 17.8533 25.0992C18.1327 24.8695 18.3351 24.5599 18.4334 24.2118L24.9307 2.7842C24.9307 2.77862 24.9307 2.77304 24.9307 2.76746C25.0182 2.46265 25.0229 2.14005 24.9444 1.83281C24.866 1.52556 24.7071 1.24475 24.4842 1.01922ZM16.7265 23.7006L16.7209 23.7162V23.7084L12.2487 14.5206L17.6073 9.16204C17.7677 8.99319 17.8559 8.76835 17.8529 8.53546C17.8499 8.30258 17.7561 8.08007 17.5914 7.91538C17.4267 7.75069 17.2042 7.65685 16.9713 7.65387C16.7384 7.65089 16.5136 7.739 16.3447 7.89942L10.9861 13.258L1.79503 8.78582H1.78722H1.80285L23.2204 2.28295L16.7265 23.7006Z" fill="#FDFDFD"/>
</svg>
