<svg width="27" height="26" viewBox="0 0 27 26" fill="none" xmlns="http://www.w3.org/2000/svg">
<path d="M25.8775 23.9903C23.9738 20.6991 21.04 18.3391 17.6163 17.2203C19.3098 16.2121 20.6256 14.6759 21.3616 12.8476C22.0975 11.0192 22.2129 8.99981 21.6901 7.0995C21.1673 5.1992 20.0351 3.52305 18.4675 2.32846C16.8999 1.13388 14.9835 0.486908 13.0125 0.486908C11.0416 0.486908 9.12521 1.13388 7.55758 2.32846C5.98995 3.52305 4.85779 5.1992 4.33497 7.0995C3.81215 8.99981 3.92758 11.0192 4.66353 12.8476C5.39948 14.6759 6.71525 16.2121 8.4088 17.2203C4.98505 18.3378 2.0513 20.6978 0.147545 23.9903C0.0777316 24.1041 0.0314245 24.2308 0.0113565 24.3628C-0.00871156 24.4949 -0.00213409 24.6296 0.0307008 24.759C0.0635357 24.8884 0.121963 25.01 0.202535 25.1165C0.283108 25.223 0.384193 25.3122 0.499827 25.379C0.615461 25.4458 0.743301 25.4888 0.875805 25.5054C1.00831 25.522 1.14279 25.5118 1.27132 25.4756C1.39985 25.4394 1.51982 25.3778 1.62415 25.2944C1.72849 25.2111 1.81507 25.1077 1.8788 24.9903C4.2338 20.9203 8.3963 18.4903 13.0125 18.4903C17.6288 18.4903 21.7913 20.9203 24.1463 24.9903C24.21 25.1077 24.2966 25.2111 24.4009 25.2944C24.5053 25.3778 24.6252 25.4394 24.7538 25.4756C24.8823 25.5118 25.0168 25.522 25.1493 25.5054C25.2818 25.4888 25.4096 25.4458 25.5253 25.379C25.6409 25.3122 25.742 25.223 25.8226 25.1165C25.9031 25.01 25.9616 24.8884 25.9944 24.759C26.0272 24.6296 26.0338 24.4949 26.0137 24.3628C25.9937 24.2308 25.9474 24.1041 25.8775 23.9903ZM6.01255 9.49031C6.01255 8.10584 6.42309 6.75246 7.19226 5.60132C7.96143 4.45017 9.05468 3.55297 10.3338 3.02315C11.6128 2.49334 13.0203 2.35471 14.3782 2.62481C15.736 2.89491 16.9833 3.56159 17.9623 4.54056C18.9413 5.51953 19.6079 6.76681 19.878 8.12468C20.1481 9.48254 20.0095 10.89 19.4797 12.1691C18.9499 13.4482 18.0527 14.5414 16.9015 15.3106C15.7504 16.0798 14.397 16.4903 13.0125 16.4903C11.1566 16.4883 9.37732 15.7502 8.06499 14.4379C6.75267 13.1255 6.01453 11.3462 6.01255 9.49031Z" fill="#9C9A9A"/>
</svg>
