<?xml version="1.0" encoding="UTF-8"?>
<svg version="1.1" xmlns="http://www.w3.org/2000/svg" width="500" height="500">
<path d="M0 0 C0.85722656 -0.0103125 1.71445312 -0.020625 2.59765625 -0.03125 C4.9375 0.5 4.9375 0.5 6.56542969 2.01660156 C8.51045937 5.53703608 8.30949319 8.85207753 8.23046875 12.765625 C8.22622391 13.55902283 8.22197906 14.35242065 8.21760559 15.16986084 C8.2008504 17.6969232 8.16320506 20.22317983 8.125 22.75 C8.10994903 24.46613429 8.09626134 26.18228112 8.08398438 27.8984375 C8.05095735 32.09926746 7.99919765 36.29949725 7.9375 40.5 C9.20207031 40.6431665 10.46664062 40.78633301 11.76953125 40.93383789 C19.64986713 41.82599875 25.31598719 46.35011855 30.3125 52.3125 C38.1992496 62.87596461 40.15369379 73.55780272 38.9375 86.5 C37.47662788 92.86576919 34.90206533 98.296508 30.9375 103.5 C30.380625 104.325 29.82375 105.15 29.25 106 C24.2662697 111.38781654 17.8022455 115.02869162 10.9375 117.5 C9.9475 117.5 8.9575 117.5 7.9375 117.5 C7.9375 127.73 7.9375 137.96 7.9375 148.5 C15.1975 148.5 22.4575 148.5 29.9375 148.5 C29.71126953 145.85484375 29.71126953 145.85484375 29.48046875 143.15625 C28.224884 122.08900097 28.224884 122.08900097 34.13134766 114.48681641 C36.42831656 111.95185297 38.7953922 109.52093096 41.27050781 107.15966797 C43.75906222 104.68204746 45.7000299 101.97697594 47.75 99.125 C51.68634196 93.80950173 55.77931476 88.64280444 59.9375 83.5 C61.43844171 81.62575375 62.93846404 79.75077083 64.4375 77.875 C65.60416667 76.41666667 66.77083333 74.95833333 67.9375 73.5 C67.58816406 72.82453125 67.23882812 72.1490625 66.87890625 71.453125 C66.42386719 70.56109375 65.96882813 69.6690625 65.5 68.75 C64.82130859 67.42742187 64.82130859 67.42742187 64.12890625 66.078125 C60.34305983 57.8858016 60.38538418 45.58290509 63.375 37.0625 C67.35737948 28.8163008 74.50255735 21.23502996 82.9375 17.5 C93.52033984 13.97238672 104.17764483 14.10390517 114.28515625 18.9609375 C123.82997926 24.49946514 130.02703561 32.81951757 132.9375 43.5 C134.08643687 54.84423984 132.9963045 64.34708573 126.2578125 73.875 C120.47146977 80.87004543 113.89540488 84.93810889 104.9375 86.5 C92.27728204 87.20614762 92.27728204 87.20614762 86.84521484 86.05761719 C84.49447446 85.50653888 84.49447446 85.50653888 80.9375 85.5 C78.65295088 87.44683317 77.43545796 88.82577748 75.8125 91.25 C75.36221436 91.87036133 74.91192871 92.49072266 74.44799805 93.12988281 C73.45904433 94.49619385 72.4822872 95.87139287 71.51611328 97.25390625 C69.25741914 100.46763748 66.91677075 103.61866014 64.57739258 106.77392578 C63.35773883 108.4265281 62.14792078 110.08643413 60.94799805 111.75341797 C57.90462412 115.96640725 54.80665101 119.69334899 51.125 123.375 C45.36073634 130.20854072 46.76934422 141.03849474 46.9375 149.5 C47.98550781 149.75394531 49.03351563 150.00789062 50.11328125 150.26953125 C56.78895104 152.18670699 62.92593526 157.19022089 66.4375 163.1875 C66.9325 164.280625 67.4275 165.37375 67.9375 166.5 C68.35 167.304375 68.7625 168.10875 69.1875 168.9375 C70.24275306 172.54294796 70.06463889 175.74940285 69.9375 179.5 C74.8875 179.5 79.8375 179.5 84.9375 179.5 C84.9375 175.21 84.9375 170.92 84.9375 166.5 C83.6175 165.84 82.2975 165.18 80.9375 164.5 C73.51114826 157.90041007 69.64530593 150.73543315 68.52734375 140.88671875 C68.11814157 130.61469486 70.27058823 121.93648898 76.5625 113.6875 C81.93521085 108.00857247 89.35343872 103.38412062 96.9375 101.5 C99.37598357 101.62834124 101.81350573 101.77573072 104.25 101.9375 C111.18871157 101.94564403 114.84518797 99.47723327 119.73901367 94.69555664 C122.550438 91.72802879 125.27441926 88.69260068 127.97314453 85.62255859 C130.45122655 82.9448995 133.14994105 80.63022031 135.92871094 78.27294922 C138.06410866 76.3882557 140.034897 74.4053042 142.0078125 72.3515625 C142.67683594 71.65675781 143.34585937 70.96195312 144.03515625 70.24609375 C145.40217475 68.81586053 146.76141597 67.37815836 148.11328125 65.93359375 C153.13849392 60.75286192 153.13849392 60.75286192 157.2578125 59.44921875 C160.69261285 59.51430972 162.27533032 60.35547442 164.9375 62.5 C166.891272 64.98661891 166.93656544 66.42229728 166.97485352 69.60571289 C166.09197457 75.10370153 161.81264735 78.36310828 157.96484375 82.05859375 C157.16720108 82.84774673 156.36955841 83.63689972 155.54774475 84.44996643 C153.0039272 86.9602736 150.44002523 89.44888489 147.875 91.9375 C146.14381474 93.63858332 144.41398022 95.34104246 142.68554688 97.04492188 C138.4517257 101.21268957 134.20123239 105.36284918 129.9375 109.5 C130.557957 110.31676208 130.557957 110.31676208 131.19094849 111.15002441 C131.73266693 111.86686401 132.27438538 112.58370361 132.83251953 113.32226562 C133.36990753 114.03177368 133.90729553 114.74128174 134.46096802 115.47229004 C141.09231398 124.5790662 142.28546283 134.61846138 140.9375 145.5 C138.47736301 154.68381647 134.03194403 161.93163884 126.125 167.25 C118.11993812 171.84381392 111.12015364 172.96342364 101.9375 172.5 C101.99550781 173.81355469 102.05351562 175.12710938 102.11328125 176.48046875 C102.16019048 178.21611023 102.20568939 179.95179023 102.25 181.6875 C102.29189453 182.55181641 102.33378906 183.41613281 102.37695312 184.30664062 C102.45555164 188.40948323 102.2428324 190.92966212 100.28125 194.59375 C94.82443862 197.70464247 89.27667037 197.01935907 83.125 196.8125 C81.22717773 196.77866211 81.22717773 196.77866211 79.29101562 196.74414062 C76.17267021 196.68530392 73.05493411 196.59562681 69.9375 196.5 C69.9375 201.12 69.9375 205.74 69.9375 210.5 C71.25105469 210.44199219 72.56460937 210.38398438 73.91796875 210.32421875 C75.65361023 210.27730952 77.38929023 210.23181061 79.125 210.1875 C80.42147461 210.1246582 80.42147461 210.1246582 81.74414062 210.06054688 C86.2708231 209.97382882 88.28328465 210.01037759 92.01171875 212.80078125 C93.9375 215.5 93.9375 215.5 94.5625 219 C93.75273218 223.53469977 92.61521843 224.74755254 88.9375 227.5 C85.63639918 228.10093569 82.46600373 227.97319355 79.125 227.8125 C74.5771875 227.6578125 74.5771875 227.6578125 69.9375 227.5 C69.9375 235.09 69.9375 242.68 69.9375 250.5 C72.48984375 250.44199219 75.0421875 250.38398438 77.671875 250.32421875 C80.14742934 250.28521072 82.62294928 250.2548592 85.09863281 250.2253418 C86.81753901 250.20021633 88.53633856 250.16610953 90.25488281 250.12280273 C92.72748114 250.06205971 95.19866606 250.03377238 97.671875 250.01171875 C98.43868591 249.98591232 99.20549683 249.9601059 99.99554443 249.93351746 C103.70540068 249.93157276 105.50439258 250.09403021 108.25585938 252.6730957 C109.93654474 255.49839417 111.58108087 258.30762241 113.109375 261.21875 C113.68800293 262.31058594 114.26663086 263.40242188 114.86279297 264.52734375 C115.46494629 265.67332031 116.06709961 266.81929688 116.6875 268 C121.08737798 276.30982763 125.55730167 284.48781178 130.6796875 292.375 C131.9375 294.5 131.9375 294.5 131.9375 296.5 C132.9275 296.17 133.9175 295.84 134.9375 295.5 C148.50855876 294.48549683 158.51660084 296.83340765 169.421875 305.23046875 C178.82762026 313.71608676 182.29682194 323.85589605 183.00390625 336.22265625 C182.79784309 346.39247918 178.51324155 356.3485924 171.6875 363.83984375 C164.2335421 370.91112078 154.62034151 375.72070525 144.25 375.75 C142.81144984 375.68735707 141.37304296 375.61210314 139.9375 375.5 C138.71549615 382.70263444 137.53456364 389.9120728 136.375 397.125 C136.24826904 397.89948486 136.12153809 398.67396973 135.9909668 399.47192383 C134.16871519 410.88775879 133.6989913 422.14307566 133.6875 433.6875 C133.68616058 434.48313354 133.68482117 435.27876709 133.68344116 436.09851074 C133.68989902 453.84292095 135.71003112 470.88657676 139.484375 488.22265625 C140.03953106 492.23796602 140.10306689 495.61597501 137.9182806 499.14746857 C134.71903762 501.3319996 131.22207519 500.91869178 127.47938538 500.89440918 C126.60576416 500.90050028 125.73214294 500.90659139 124.83204836 500.91286707 C121.89319129 500.92956834 118.95476412 500.92471113 116.01586914 500.91992188 C113.91356453 500.92725805 111.81126395 500.93584296 109.70896912 500.94558716 C103.99001683 500.96785898 98.27120838 500.97073102 92.55221868 500.96883965 C87.78308717 500.96872021 83.01398643 500.97727331 78.24486345 500.98561716 C66.99663626 501.00487153 55.7484833 501.00772759 44.50024414 501.00097656 C32.88434053 500.99433334 21.26875428 501.01720697 9.65291506 501.05429029 C-0.30977685 501.08494556 -10.27236646 501.09635188 -20.23510462 501.09245348 C-26.18994957 501.09038172 -32.14454763 501.09593103 -38.09934807 501.12034607 C-43.69808404 501.14254174 -49.29630258 501.14079513 -54.89504051 501.12041855 C-56.95260262 501.1169958 -59.01019908 501.12215162 -61.06771469 501.13640213 C-63.87155414 501.15448524 -66.67361769 501.14192758 -69.47740173 501.12145996 C-70.29636694 501.13397781 -71.11533215 501.14649566 -71.95911449 501.15939283 C-75.91094369 501.09731843 -77.66664823 500.87624397 -80.58146 498.10581207 C-82.24417685 495.18034913 -82.4565108 494.00877004 -82.0078125 490.71875 C-81.87922852 489.75324219 -81.75064453 488.78773438 -81.61816406 487.79296875 C-80.50069901 481.1706627 -79.25764645 474.58425024 -77.9375 468 C-77.62700439 466.43115739 -77.31695369 464.86222667 -77.00732422 463.29321289 C-76.36183705 460.02827754 -75.71269479 456.76409961 -75.06054688 453.50048828 C-74.22473396 449.31743097 -73.39564775 445.1330768 -72.56893921 440.94821167 C-71.93069087 437.71887268 -71.2902427 434.48997347 -70.64898682 431.26123047 C-70.34241072 429.71752394 -70.03621496 428.17374183 -69.73040771 426.62988281 C-69.30408664 424.4807062 -68.87512095 422.33207528 -68.4453125 420.18359375 C-68.20184082 418.96212646 -67.95836914 417.74065918 -67.70751953 416.48217773 C-67.0625 413.5 -67.0625 413.5 -66.0625 410.5 C-66.79251221 410.61593506 -67.52252441 410.73187012 -68.2746582 410.85131836 C-71.64086481 411.38374895 -75.00791526 411.91065241 -78.375 412.4375 C-79.52291016 412.61990234 -80.67082031 412.80230469 -81.85351562 412.99023438 C-124.4043646 419.61997005 -124.4043646 419.61997005 -140.0625 411.5 C-140.91199219 411.07589844 -141.76148438 410.65179688 -142.63671875 410.21484375 C-153.44715104 404.27158924 -161.12138451 396.22620113 -167.0625 385.5 C-167.84753906 384.12908203 -167.84753906 384.12908203 -168.6484375 382.73046875 C-179.97557558 361.71489023 -181.5236125 337.88354927 -182.0625 314.5 C-182.82804199 314.4906543 -183.59358398 314.48130859 -184.38232422 314.47167969 C-187.90133322 314.41750023 -191.41908016 314.3339457 -194.9375 314.25 C-196.14148438 314.23582031 -197.34546875 314.22164063 -198.5859375 314.20703125 C-208.76112755 313.93053152 -218.51410686 311.80788062 -226.0625 304.5 C-234.06919351 294.4727494 -236.09390722 285.10329304 -235.0625 272.5 C-233.448191 262.84246723 -225.63431518 255.08239317 -219.7421875 247.63867188 C-195.46318106 216.72528576 -179.83362005 189.94533906 -177.31445312 150.29492188 C-174.68967691 110.76050189 -168.92569579 71.34850709 -139.0625 42.5 C-136.08223023 39.98686946 -132.96416632 37.67177 -129.82397461 35.36376953 C-125.41645076 32.03636767 -122.72338143 28.70539294 -120.2734375 23.7890625 C-117.64790803 18.82596485 -114.4205837 15.7623911 -109.6875 12.8125 C-108.77226562 12.23113281 -107.85703125 11.64976563 -106.9140625 11.05078125 C-98.48008466 6.46408371 -89.3254486 6.31274893 -79.9921875 8.08203125 C-70.44736473 11.05968963 -63.11975857 17.9126237 -58 26.3828125 C-53.89014137 35.66424323 -53.1277926 47.56507017 -56.8125 57.125 C-58.10893413 59.91373242 -59.59069336 62.30015446 -61.4375 64.75 C-63.4006517 67.35426612 -63.4006517 67.35426612 -62.48828125 70.0390625 C-60.55868776 74.72295246 -58.24700716 79.15176451 -55.875 83.625 C-55.09781616 85.10202393 -55.09781616 85.10202393 -54.30493164 86.60888672 C-52.5642778 89.90958713 -50.81471681 93.20542383 -49.0625 96.5 C-48.73930786 97.1079541 -48.41611572 97.7159082 -48.08312988 98.34228516 C-45.7273124 102.77265414 -43.36565229 107.1998753 -41 111.625 C-40.67512604 112.23313538 -40.35025208 112.84127075 -40.01553345 113.46783447 C-39.0834833 115.21113696 -38.14920223 116.95324612 -37.21484375 118.6953125 C-36.67851318 119.69578613 -36.14218262 120.69625977 -35.58959961 121.72705078 C-34.10386271 124.50660494 -34.10386271 124.50660494 -32.38378906 127.07250977 C-30.9473148 129.71161982 -30.70890151 131.17367401 -30.76953125 134.14453125 C-30.77702393 134.90354736 -30.7845166 135.66256348 -30.79223633 136.44458008 C-30.81954834 137.39099365 -30.84686035 138.33740723 -30.875 139.3125 C-30.936875 142.344375 -30.99875 145.37625 -31.0625 148.5 C-23.8025 148.5 -16.5425 148.5 -9.0625 148.5 C-9.0625 138.27 -9.0625 128.04 -9.0625 117.5 C-12.0325 117.005 -12.0325 117.005 -15.0625 116.5 C-27.03234913 111.07792101 -34.11781102 102.47675531 -39.0625 90.5 C-42.01936456 81.79167327 -40.8727088 70.17649716 -37.31640625 61.88671875 C-32.88201972 53.44618863 -25.78733454 45.08464107 -16.75 41.5 C-13.0625 40.5 -13.0625 40.5 -9.0625 40.5 C-9.08344727 39.43040039 -9.10439453 38.36080078 -9.12597656 37.25878906 C-9.19844626 33.28561827 -9.24432463 29.31250575 -9.28222656 25.33886719 C-9.30232628 23.62001721 -9.32961089 21.90123548 -9.36425781 20.18261719 C-9.41285034 17.71011511 -9.43548435 15.2385179 -9.453125 12.765625 C-9.47377014 11.99881409 -9.49441528 11.23200317 -9.51568604 10.44195557 C-9.51717846 6.88313086 -9.36377591 4.90012777 -7.19262695 2.01660156 C-4.61031976 0.17805803 -3.14883805 -0.03799503 0 0 Z M-103.9375 30.1875 C-107.52784104 35.78420809 -109.95146473 40.64414963 -108.69921875 47.484375 C-107.07848366 52.6150456 -104.30950249 56.39470234 -100.3125 59.9375 C-94.90606705 62.53674661 -89.75418379 63.29848702 -83.9375 61.5625 C-78.42278852 59.12499752 -74.51787792 54.7630497 -72.078125 49.29296875 C-70.67660157 44.41327436 -70.95818949 40.36027245 -72.81640625 35.64453125 C-75.73499 30.62163947 -80.06661182 27.3827967 -85.3125 25.0625 C-92.36772471 23.61938585 -98.71565136 25.30620671 -103.9375 30.1875 Z M83.0625 38.5625 C79.24794896 42.71826088 78.00605694 46.90403969 77.9375 52.5 C78.57409164 57.91987046 80.62147198 61.62977675 84.5 65.4375 C88.95722888 68.93960841 93.26534456 70.45609787 98.9375 70.5 C104.87785968 69.56651491 109.30783717 67.4107203 112.9375 62.5 C115.90083694 56.55017504 116.72457694 50.94320257 114.9375 44.5 C111.93419621 38.81517497 108.46185744 35.38573945 102.375 33.25 C94.83621771 31.60517477 88.73941663 33.5374214 83.0625 38.5625 Z M-129.0625 57.125 C-153.08331933 81.52710217 -157.47002449 116.12590874 -159.18008423 148.67562866 C-161.69926831 196.22482111 -182.91583157 231.02828619 -213.0859375 266.90625 C-216.72822498 271.38359852 -218.92908656 275.61954624 -219.0625 281.5 C-218.12918565 286.42824868 -216.16859124 290.50366315 -212.0625 293.5 C-206.39797952 295.9718393 -201.90580973 296.92422111 -195.765625 296.87109375 C-194.21484132 296.88845574 -192.66406011 296.90604029 -191.11328125 296.92382812 C-188.7016167 296.93393631 -186.29010295 296.93748427 -183.87841797 296.93579102 C-181.5278725 296.93935749 -179.17846737 296.96665704 -176.828125 296.99609375 C-175.74836395 296.98381996 -175.74836395 296.98381996 -174.64678955 296.97129822 C-171.33672549 297.02053953 -169.36305783 297.29345807 -166.60864258 299.1862793 C-164.71516959 302.01976162 -164.56507301 303.63112485 -164.55859375 307.0234375 C-164.53381958 308.6626416 -164.53381958 308.6626416 -164.50854492 310.33496094 C-164.5057251 311.50317383 -164.50290527 312.67138672 -164.5 313.875 C-163.97912318 339.91535689 -161.58972694 369.87358485 -142.34765625 389.51171875 C-133.91196361 396.85149235 -124.41754905 399.08583766 -113.4375 398.375 C-112.61064697 398.32786865 -111.78379395 398.2807373 -110.93188477 398.23217773 C-94.72432414 397.15012027 -78.30786171 395.0140293 -62.37695312 391.89550781 C-58.04788362 391.15573011 -53.82343437 390.50603175 -49.86346436 392.74125671 C-48.0625 394.5 -48.0625 394.5 -47.59991455 396.56697083 C-47.83807354 403.27779141 -48.79891887 409.6802194 -50.109375 416.26171875 C-50.32184875 417.36941116 -50.53432251 418.47710358 -50.75323486 419.61836243 C-51.43099782 423.14314738 -52.12118934 426.66534964 -52.8125 430.1875 C-53.70652953 434.79491737 -54.59554823 439.40329531 -55.484375 444.01171875 C-55.70258911 445.13746307 -55.92080322 446.2632074 -56.14562988 447.42306519 C-57.8096088 456.0512048 -59.35310704 464.69645049 -60.81951904 473.36027527 C-60.9696344 474.24403336 -61.11974976 475.12779144 -61.27441406 476.03833008 C-61.46780365 477.19151482 -61.46780365 477.19151482 -61.6651001 478.36799622 C-62.04924791 480.42890408 -62.55404729 482.46618914 -63.0625 484.5 C-2.6725 484.5 57.7175 484.5 119.9375 484.5 C118.9475 476.91 117.9575 469.32 116.9375 461.5 C114.33976679 434.10297645 115.22658212 406.04740624 121.75488281 379.23193359 C122.62244032 375.60660487 123.18939534 373.03932586 121.9375 369.5 C119.80334438 367.33544764 119.80334438 367.33544764 117.1875 365.25 C108.91931008 358.01975689 104.67755924 350.18939604 103.6171875 339.171875 C103.21782477 327.08449651 106.1070821 317.68769034 113.9375 308.5 C114.9419319 307.17000213 115.94247431 305.83704961 116.9375 304.5 C114.75419079 300.37200719 112.56694848 296.2461309 110.3762207 292.12207031 C109.63330489 290.72223847 108.89141983 289.32185903 108.15063477 287.92089844 C106.38925524 284.59054902 104.6134021 281.27093136 102.79614258 277.97070312 C100.9375 274.5 100.9375 274.5 99.7878418 271.76367188 C98.70889489 269.40427695 98.01307655 268.06456835 95.9375 266.5 C91.29332006 265.54351313 86.84012023 265.74631531 82.125 266 C80.85978516 266.03609375 79.59457031 266.0721875 78.29101562 266.109375 C75.17010256 266.20359124 72.05534192 266.33501803 68.9375 266.5 C68.55513184 267.31331787 68.17276367 268.12663574 67.77880859 268.96459961 C67.26141113 270.03718018 66.74401367 271.10976074 66.2109375 272.21484375 C65.45176025 273.80607056 65.45176025 273.80607056 64.67724609 275.42944336 C60.94663355 282.01377033 55.2141263 286.62495429 48.0546875 289.02734375 C45.03956067 289.70046247 41.9982822 290.09262971 38.9375 290.5 C38.92348145 291.70329956 38.92348145 291.70329956 38.90917969 292.9309082 C38.85556258 296.55873639 38.77189702 300.18526292 38.6875 303.8125 C38.67332031 305.07513672 38.65914063 306.33777344 38.64453125 307.63867188 C38.61230469 308.84716797 38.58007812 310.05566406 38.546875 311.30078125 C38.5154541 312.97394409 38.5154541 312.97394409 38.48339844 314.6809082 C37.9375 317.5 37.9375 317.5 36.12207031 319.36401367 C32.92747742 321.02521626 30.47552127 320.88596596 26.9375 320.5 C25.25463867 319.36401367 25.25463867 319.36401367 23.9375 317.5 C23.50512695 314.6809082 23.50512695 314.6809082 23.42578125 311.30078125 C23.39033203 310.09228516 23.35488281 308.88378906 23.31835938 307.63867188 C23.29580078 306.37603516 23.27324219 305.11339844 23.25 303.8125 C23.21583984 302.53826172 23.18167969 301.26402344 23.14648438 299.95117188 C23.06389805 296.80109357 22.99902609 293.65056001 22.9375 290.5 C17.9875 290.5 13.0375 290.5 7.9375 290.5 C7.92291748 291.75659424 7.90833496 293.01318848 7.89331055 294.30786133 C7.83538396 298.96537892 7.75815089 303.62241016 7.67504883 308.27954102 C7.6417729 310.29606235 7.61374932 312.31267742 7.59106445 314.3293457 C7.55756744 317.226481 7.50525456 320.12275518 7.44921875 323.01953125 C7.44282883 323.92274612 7.4364389 324.825961 7.42985535 325.75654602 C7.40016411 327.0175135 7.40016411 327.0175135 7.36987305 328.30395508 C7.35876999 329.04341873 7.34766693 329.78288239 7.33622742 330.54475403 C6.82737117 333.0400405 5.918332 333.94434236 3.9375 335.5 C1.78125 335.8984375 1.78125 335.8984375 -0.5625 335.875 C-1.3359375 335.88273437 -2.109375 335.89046875 -2.90625 335.8984375 C-5.6102685 335.39878191 -6.35818145 334.62676048 -8.0625 332.5 C-8.46122742 330.54475403 -8.46122742 330.54475403 -8.49487305 328.30395508 C-8.52456429 327.04298759 -8.52456429 327.04298759 -8.55485535 325.75654602 C-8.56444023 324.40172371 -8.56444023 324.40172371 -8.57421875 323.01953125 C-8.59216995 322.09154221 -8.61012115 321.16355316 -8.62861633 320.20744324 C-8.68281291 317.24250843 -8.716645 314.27773545 -8.75 311.3125 C-8.78316482 309.30271181 -8.81765369 307.292945 -8.85351562 305.28320312 C-8.93854479 300.35558535 -9.00531138 295.42801636 -9.0625 290.5 C-13.6825 290.5 -18.3025 290.5 -23.0625 290.5 C-23.08828125 292.33046875 -23.1140625 294.1609375 -23.140625 296.046875 C-23.19689998 298.44794071 -23.25424744 300.84898145 -23.3125 303.25 C-23.32667969 304.4565625 -23.34085938 305.663125 -23.35546875 306.90625 C-23.38769531 308.06640625 -23.41992188 309.2265625 -23.453125 310.421875 C-23.47407227 311.49018555 -23.49501953 312.55849609 -23.51660156 313.65917969 C-24.18996562 317.16332287 -25.24385576 318.36550496 -28.0625 320.5 C-31.5625 321 -31.5625 321 -35.0625 320.5 C-37.88114424 318.36550496 -38.93503438 317.16332287 -39.60839844 313.65917969 C-39.6293457 312.59086914 -39.65029297 311.52255859 -39.671875 310.421875 C-39.70410156 309.26171875 -39.73632812 308.1015625 -39.76953125 306.90625 C-39.78371094 305.6996875 -39.79789063 304.493125 -39.8125 303.25 C-39.84214844 302.02796875 -39.87179688 300.8059375 -39.90234375 299.546875 C-39.97302402 296.53118356 -40.02573175 293.5162645 -40.0625 290.5 C-40.72999268 290.38027832 -41.39748535 290.26055664 -42.08520508 290.13720703 C-51.55667293 288.35748419 -58.35586223 285.36967637 -64.55859375 277.7421875 C-68.60893546 271.70349622 -70.09240447 265.62358552 -71.0625 258.5 C-72.10704346 258.48541748 -73.15158691 258.47083496 -74.2277832 258.45581055 C-78.10264345 258.39784449 -81.97692151 258.32061226 -85.85131836 258.23754883 C-87.52830559 258.20429137 -89.20540497 258.17626192 -90.88256836 258.15356445 C-93.29329225 258.12003263 -95.70298762 258.06772022 -98.11328125 258.01171875 C-98.86337967 258.00532883 -99.61347809 257.9989389 -100.38630676 257.99235535 C-105.57945729 257.84561147 -105.57945729 257.84561147 -108.03442383 256.08911133 C-109.31900893 254.10351065 -109.46426621 252.85542619 -109.4375 250.5 C-109.44910156 249.4790625 -109.44910156 249.4790625 -109.4609375 248.4375 C-108.91295039 245.77277837 -108.29255996 245.09558209 -106.0625 243.5 C-103.34225904 243.16901087 -100.83790705 243.01149174 -98.11328125 242.98828125 C-97.34066452 242.97033005 -96.56804779 242.95237885 -95.77201843 242.93388367 C-93.306401 242.87973896 -90.84097757 242.84587269 -88.375 242.8125 C-86.70244694 242.77933048 -85.02991949 242.74484115 -83.35742188 242.70898438 C-79.2592545 242.62401051 -75.16114506 242.5572198 -71.0625 242.5 C-71.0625 237.55 -71.0625 232.6 -71.0625 227.5 C-72.55620117 227.48541748 -74.04990234 227.47083496 -75.58886719 227.45581055 C-81.12784837 227.39786232 -86.66642155 227.32062868 -92.20507812 227.23754883 C-94.60279725 227.20428323 -97.00059499 227.17625645 -99.3984375 227.15356445 C-102.84409099 227.1200492 -106.28902295 227.06773345 -109.734375 227.01171875 C-110.80741882 227.00532883 -111.88046265 226.9989389 -112.98602295 226.99235535 C-114.48712616 226.96266411 -114.48712616 226.96266411 -116.01855469 226.93237305 C-116.89791687 226.92126999 -117.77727905 226.91016693 -118.68328857 226.89872742 C-121.60012883 226.40989983 -122.9787643 225.58745997 -125.0625 223.5 C-125.74591709 218.11809045 -125.74591709 218.11809045 -125.0625 215.5 C-123.04889285 213.04671439 -121.82752476 211.66687631 -118.68328857 210.98101807 C-117.80392639 210.97213562 -116.92456421 210.96325317 -116.01855469 210.95410156 C-115.01781921 210.93438293 -114.01708374 210.91466431 -112.98602295 210.89434814 C-111.91297913 210.89311951 -110.8399353 210.89189087 -109.734375 210.890625 C-108.63023254 210.87408875 -107.52609009 210.85755249 -106.38848877 210.84051514 C-102.86310311 210.79194374 -99.33814911 210.7706431 -95.8125 210.75 C-93.42185318 210.7218481 -91.03122654 210.69192178 -88.640625 210.66015625 C-82.78128552 210.58618176 -76.92218696 210.53666255 -71.0625 210.5 C-71.0625 205.88 -71.0625 201.26 -71.0625 196.5 C-72.10704346 196.48541748 -73.15158691 196.47083496 -74.2277832 196.45581055 C-78.10264345 196.39784449 -81.97692151 196.32061226 -85.85131836 196.23754883 C-87.52830559 196.20429137 -89.20540497 196.17626192 -90.88256836 196.15356445 C-93.29329225 196.12003263 -95.70298762 196.06772022 -98.11328125 196.01171875 C-98.86337967 196.00532883 -99.61347809 195.9989389 -100.38630676 195.99235535 C-105.57453435 195.84575058 -105.57453435 195.84575058 -108.03442383 194.1027832 C-109.39744416 191.977818 -109.46262469 190.51246883 -109.4375 188 C-109.44910156 186.83984375 -109.44910156 186.83984375 -109.4609375 185.65625 C-108.93905556 182.83194775 -108.41650519 182.16794252 -106.0625 180.5 C-103.34225904 180.16901087 -100.83790705 180.01149174 -98.11328125 179.98828125 C-97.34066452 179.97033005 -96.56804779 179.95237885 -95.77201843 179.93388367 C-93.306401 179.87973896 -90.84097757 179.84587269 -88.375 179.8125 C-86.70244694 179.77933048 -85.02991949 179.74484115 -83.35742188 179.70898438 C-79.2592545 179.62401051 -75.16114506 179.5572198 -71.0625 179.5 C-70.9493042 178.76177002 -70.8361084 178.02354004 -70.71948242 177.26293945 C-70.55810791 176.28542725 -70.3967334 175.30791504 -70.23046875 174.30078125 C-70.07602295 173.33567627 -69.92157715 172.37057129 -69.76245117 171.3762207 C-67.92421878 163.82260514 -62.36352358 157.80984773 -56.0625 153.5 C-53.4368569 152.01874967 -50.81010601 150.75329397 -48.0625 149.5 C-46.69575362 137.20169307 -50.09983039 129.72052976 -55.9375 119.25 C-56.72338112 117.79191791 -57.50681438 116.33251392 -58.2878418 114.87182617 C-60.17836563 111.35200085 -62.10044067 107.85084864 -64.03692627 104.35614014 C-65.46674179 101.76838082 -66.87178525 99.16740214 -68.27734375 96.56640625 C-70.48591427 92.5103653 -72.71893338 88.47990308 -75.0625 84.5 C-75.62324219 83.36046875 -76.18398437 82.2209375 -76.76171875 81.046875 C-78.71868355 78.37381392 -78.71868355 78.37381392 -80.96411133 78.11401367 C-83.35408748 78.08803282 -85.68091487 78.23777515 -88.0625 78.4375 C-97.82750931 78.85601366 -105.41066567 77.14181957 -113.4375 71.25 C-118.36851342 66.08417641 -122.27007645 60.49045186 -124.0625 53.5 C-126.09313889 53.5 -127.70557812 55.82932806 -129.0625 57.125 Z M-15.4375 60.6875 C-20.17768183 65.76626625 -22.66697476 71.17203382 -23.16015625 78.13671875 C-22.85808427 85.44686068 -20.38589552 91.53149751 -15.0625 96.5 C-9.50910803 100.20623369 -3.67144303 102.06524773 3.0078125 101.24609375 C10.67779011 99.62752433 15.20146989 95.6062249 19.73828125 89.40234375 C22.95975593 84.29205655 22.45462045 78.31391137 21.9375 72.5 C20.24887827 66.3660307 16.34290149 61.7738375 10.9375 58.5 C1.8780633 54.85144267 -7.26599663 54.50140026 -15.4375 60.6875 Z M91.625 123.625 C87.58879151 127.94280443 85.90572749 132.07915983 85.9609375 138.0234375 C86.8813756 144.671046 89.69964418 149.31969222 94.9375 153.5 C99.52263491 156.13081511 103.49422846 156.87569684 108.6875 155.875 C113.58158822 154.46209801 116.81416851 152.84799779 120.125 148.875 C122.70614532 144.0687294 124.46799916 139.60720938 123.52734375 134.09765625 C121.76189516 128.29965296 119.40517942 124.07034145 114.1875 120.75 C105.20589317 117.29553583 99.4978445 118.57449598 91.625 123.625 Z M-52 171.375 C-55.34319892 176.44045291 -55.21154838 181.28125801 -55.20776367 187.20849609 C-55.21112228 187.96851425 -55.2144809 188.72853241 -55.21794128 189.51158142 C-55.22741364 192.01555023 -55.22939251 194.51945191 -55.23046875 197.0234375 C-55.23368385 198.77072171 -55.23704811 200.51800566 -55.24055481 202.26528931 C-55.24653674 205.92523828 -55.24839566 209.58516367 -55.24780273 213.24511719 C-55.24770115 217.92453351 -55.26135359 222.60379798 -55.27857494 227.28317833 C-55.28971767 230.89151702 -55.29172124 234.49981924 -55.29119301 238.10817337 C-55.29236968 239.83286691 -55.29677387 241.55756149 -55.30452538 243.28223801 C-55.31437149 245.6991705 -55.31142915 248.1157766 -55.30541992 250.53271484 C-55.31103943 251.23840103 -55.31665894 251.94408722 -55.32244873 252.67115784 C-55.28547384 258.55185285 -54.58967845 263.58011852 -50.875 268.25 C-45.19746768 272.79202586 -40.11355457 273.94855258 -32.95922852 273.88818359 C-32.18101746 273.89344055 -31.4028064 273.89869751 -30.60101318 273.90411377 C-28.04760214 273.91723683 -25.49482282 273.90860244 -22.94140625 273.8984375 C-21.15453472 273.90046066 -19.367664 273.90337411 -17.58079529 273.90713501 C-13.84276438 273.91154812 -10.10494912 273.9051608 -6.36694336 273.89111328 C-1.59116444 273.87403442 3.18410813 273.88386074 7.95986843 273.90183067 C11.64805366 273.91270656 15.33612022 273.90920455 19.02430916 273.9014473 C20.7844556 273.89945515 22.54461304 273.9018697 24.30474663 273.90888596 C26.77172979 273.916562 29.23791013 273.90481068 31.70483398 273.88818359 C32.78130943 273.89729263 32.78130943 273.89729263 33.87953186 273.90658569 C39.59472106 273.83573938 45.42183153 272.80202359 49.77734375 268.81640625 C50.13957031 268.23761719 50.50179687 267.65882813 50.875 267.0625 C51.25527344 266.48628906 51.63554687 265.91007812 52.02734375 265.31640625 C54.21807965 260.94433675 54.09130391 256.52077608 54.09863281 251.72143555 C54.10359772 250.94205627 54.10856262 250.162677 54.11367798 249.35968018 C54.12826377 246.78535066 54.1350957 244.21108277 54.140625 241.63671875 C54.1463795 239.84316507 54.1521372 238.0496114 54.15789795 236.25605774 C54.16839781 232.49597894 54.17424708 228.73592147 54.17773438 224.97583008 C54.18321626 220.16740814 54.20724201 215.35926977 54.23570633 210.5509367 C54.25436777 206.84565925 54.25954018 203.14044963 54.26107025 199.43512917 C54.26408951 197.66297671 54.27209341 195.89082525 54.28525543 194.1187191 C54.30238913 191.63451181 54.30041802 189.15099112 54.29394531 186.66674805 C54.3031601 185.94078934 54.31237488 185.21483063 54.3218689 184.46687317 C54.27295995 178.4477125 52.85758077 173.94975822 49.125 169.1875 C44.22246049 165.40554095 38.83636162 165.20511856 32.85595703 165.2253418 C32.06813843 165.22023087 31.28031982 165.21511993 30.46862793 165.20985413 C27.8774444 165.19601203 25.2865285 165.19691094 22.6953125 165.19921875 C20.8845917 165.19532863 19.0738718 165.1909933 17.26315308 165.18623352 C13.47211751 165.17878271 9.68117508 165.17905416 5.89013672 165.18432617 C1.04597416 165.19011674 -3.79780553 165.17319427 -8.64190483 165.1499815 C-12.38068855 165.13520714 -16.11938088 165.13437753 -19.85818863 165.13749123 C-21.64346194 165.13697979 -23.42874061 165.13177561 -25.21398544 165.12167931 C-27.71696162 165.10926126 -30.21920245 165.11613845 -32.72216797 165.12768555 C-33.45074005 165.12004181 -34.17931213 165.11239807 -34.92996216 165.10452271 C-41.35615559 165.16963346 -47.56791432 166.42312895 -52 171.375 Z M124.9375 320.5 C120.6870454 326.83622145 118.49405584 332.88050787 119.9375 340.5 C122.3027595 347.83447442 126.11433429 352.86013279 132.9375 356.5 C138.45127222 358.84280835 144.17945005 359.16885854 149.9375 357.5 C156.92344351 354.05195393 161.06773263 349.80046496 164.1875 342.625 C166.07756428 334.74973215 164.77492187 329.45532715 160.9375 322.5 C157.15210178 316.41632428 151.82015516 314.19741657 145.0625 312.5625 C137.39613123 311.94375764 130.08149531 314.87749349 124.9375 320.5 Z " fill="#E6E6E6" transform="translate(266.0625,-0.5)"/>
<path d="M0 0 C2.5 2.125 2.5 2.125 4 5 C3.72820688 10.20634829 2.70955713 13.08176775 -0.6875 17 C-1.49316406 17.93457031 -2.29882812 18.86914062 -3.12890625 19.83203125 C-7.60226085 24.80861833 -12.17998798 29.689163 -16.7734375 34.5546875 C-19.16188092 37.09044782 -21.48695715 39.66334558 -23.75 42.3125 C-26.36441475 45.35604849 -29.1479665 48.17785308 -32 51 C-36.21606297 55.17808042 -40.16168341 59.47626974 -44 64 C-45.95628214 66.29342248 -47.91567056 68.58418096 -49.875 70.875 C-50.38893311 71.47771729 -50.90286621 72.08043457 -51.43237305 72.70141602 C-55.30821787 77.23372785 -59.28737809 81.65043237 -63.35546875 86.01171875 C-65.19992169 87.998153 -65.19992169 87.998153 -66 91 C-61.05 91 -56.1 91 -51 91 C-50.79375 89.72125 -50.5875 88.4425 -50.375 87.125 C-48.25203239 77.74855974 -42.79458605 70.48832276 -35 65 C-25.80680514 59.51751288 -15.60163078 58.29476931 -5.109375 60.6484375 C4.80759397 64.29713363 11.96466649 70.80083301 17 80 C17.3403125 80.59039062 17.680625 81.18078125 18.03125 81.7890625 C21.63412527 89.36177256 21.16908272 99.44837128 19.12109375 107.421875 C14.93223074 118.31568376 8.32672424 124.78247674 -2 130 C-11.04035206 133.01345069 -24.22858565 132.55655784 -32.8125 128.5625 C-40.02180995 124.20601699 -45.91355445 117.90901672 -49 110 C-49 109.34 -49 108.68 -49 108 C-50.28632324 108.0314209 -50.28632324 108.0314209 -51.59863281 108.06347656 C-54.78918472 108.13176527 -57.97936346 108.18185513 -61.17041016 108.21972656 C-62.5497668 108.23980642 -63.92903869 108.26707666 -65.30810547 108.30175781 C-67.29356979 108.35042817 -69.27966254 108.37086418 -71.265625 108.390625 C-73.05661621 108.4220459 -73.05661621 108.4220459 -74.88378906 108.45410156 C-78 108 -78 108 -80.37011719 106.29736328 C-84.70820128 100.18271808 -83.27631375 90.03776665 -82.58007812 82.89697266 C-81.2292697 76.15088982 -76.69304861 72.00270456 -71.72412109 67.57666016 C-68.80289397 64.90528027 -66.21340916 61.93517437 -63.5625 59 C-62.60668372 57.97802899 -61.64970321 56.95714526 -60.69140625 55.9375 C-58.83372303 53.90995605 -57.04725581 51.88806499 -55.296875 49.7734375 C-52.48418918 46.37716721 -49.40461503 43.34596078 -46.22265625 40.296875 C-42.53418941 36.7033588 -39.14888926 33.02784416 -35.9375 29 C-31.95741672 24.04393108 -27.72823265 19.38089368 -23.375 14.75 C-22.75359131 14.08871094 -22.13218262 13.42742187 -21.49194336 12.74609375 C-7.68314176 -1.85455146 -7.68314176 -1.85455146 0 0 Z M-31.578125 85.83203125 C-34.35019419 90.05867521 -35.29000775 93.44229273 -34.71875 98.48046875 C-33.38541253 104.27873237 -31.01258835 108.00973025 -26.3046875 111.6484375 C-21.58729097 114.41491072 -17.00247232 115.43514092 -11.57421875 114.6484375 C-6.2306638 113.15763057 -2.11384448 110.64972724 1 106 C3.5092704 100.4935455 3.33913641 94.8140839 2 89 C-0.3606871 83.53314565 -4.63474738 80.01367969 -10.0625 77.6875 C-19.13806888 75.56343069 -25.87236403 78.64748361 -31.578125 85.83203125 Z " fill="#E6E6E6" transform="translate(457,119)"/>
<path d="M0 0 C1.11640869 -0.0236412 1.11640869 -0.0236412 2.25537109 -0.04776001 C3.04508301 -0.03763885 3.83479492 -0.0275177 4.6484375 -0.01708984 C5.4729541 -0.02187347 6.2974707 -0.0266571 7.14697266 -0.03158569 C8.88511063 -0.03497857 10.62331294 -0.02581887 12.36132812 -0.00488281 C15.01577575 0.02189536 17.66599575 -0.0046473 20.3203125 -0.03662109 C22.01303013 -0.03331688 23.70574513 -0.0269104 25.3984375 -0.01708984 C26.58300537 -0.03227158 26.58300537 -0.03227158 27.79150391 -0.04776001 C31.980412 0.04094481 33.59648258 0.31640225 37.0234375 2.96972656 C39.0234375 5.64697266 39.0234375 5.64697266 39.6484375 9.14697266 C39.04514698 12.52539957 38.44854055 14.27915482 35.94921875 16.63476562 C31.40340235 19.02408545 25.69773363 18.13383616 20.7109375 17.95947266 C19.49341797 17.93691406 18.27589844 17.91435547 17.02148438 17.89111328 C14.02088268 17.83227795 11.02278953 17.75011406 8.0234375 17.64697266 C8.03454056 18.36471863 8.04564362 19.0824646 8.05708313 19.82196045 C8.15731784 26.58999573 8.23341885 33.35791992 8.28249836 40.12650681 C8.30857972 43.6063074 8.34394794 47.08549413 8.40063477 50.56494141 C8.46541569 54.56630299 8.48962962 58.56702105 8.51171875 62.56884766 C8.53752518 63.81688171 8.5633316 65.06491577 8.58992004 66.35076904 C8.5902977 67.51167053 8.59067535 68.67257202 8.59106445 69.86865234 C8.60216751 70.89013367 8.61327057 71.91161499 8.62471008 72.96405029 C7.80308608 76.63019685 6.11604974 77.65476511 3.0234375 79.64697266 C0.03632373 80.40348564 -1.80982481 80.04909808 -4.9765625 79.64697266 C-7.99782996 77.45386353 -8.87551003 76.25659807 -9.4912262 72.54212952 C-9.49742477 71.32255051 -9.50362335 70.1029715 -9.51000977 68.84643555 C-9.51862534 68.17113297 -9.52724091 67.49583038 -9.53611755 66.80006409 C-9.55877769 64.57285986 -9.55203924 62.34691401 -9.54296875 60.11962891 C-9.54820473 58.5679029 -9.55448111 57.01618008 -9.56175232 55.46446228 C-9.57215678 52.21370458 -9.56759534 48.96338459 -9.55297852 45.71264648 C-9.53579789 41.55157928 -9.55927491 37.39189386 -9.59446812 33.23098087 C-9.61645566 30.02667634 -9.6149974 26.82270169 -9.6067028 23.61834526 C-9.60588386 22.0845736 -9.61273652 20.55077757 -9.62747383 19.01707649 C-9.64494523 16.86949544 -9.63036121 14.72438698 -9.60766602 12.5769043 C-9.60670425 11.35652969 -9.60574249 10.13615509 -9.60475159 8.87879944 C-8.61623561 3.79320902 -5.41499126 0.03319657 0 0 Z " fill="#E6E6E6" transform="translate(234.9765625,178.35302734375)"/>
<path d="M0 0 C4.20916632 0.59076019 5.6315624 1.46314304 8.5625 4.5 C9.19068909 7.64953613 9.19068909 7.64953613 9.19360352 11.40820312 C9.20075882 12.09486557 9.20791412 12.78152802 9.21528625 13.48899841 C9.23216473 15.75376371 9.21277924 18.01654685 9.19140625 20.28125 C9.19223505 21.85778975 9.19469483 23.43432942 9.19871521 25.01086426 C9.20157259 28.31300912 9.186879 31.61447547 9.15942383 34.91650391 C9.1253402 39.14704488 9.13135928 43.37637269 9.1500864 47.60697174 C9.16066036 50.86185804 9.15171517 54.11646253 9.13670158 57.37132263 C9.13152215 58.93101667 9.1319987 60.49074017 9.13824654 62.0504303 C9.14370393 64.23152834 9.12331108 66.41089609 9.09594727 68.59179688 C9.08974869 69.83215698 9.08355011 71.07251709 9.0771637 72.35046387 C8.46509974 76.09605068 7.61192765 77.29528857 4.5625 79.5 C1.52302803 79.89778261 -1.14608449 80.06136273 -4.18359375 80.03125 C-5.03172134 80.0350769 -5.87984894 80.03890381 -6.75367737 80.04284668 C-8.54486276 80.04556486 -10.33608791 80.03821019 -12.12719727 80.02148438 C-14.86239644 80.00009854 -17.59496123 80.02127405 -20.33007812 80.046875 C-22.07292244 80.04423119 -23.81576513 80.0391051 -25.55859375 80.03125 C-26.78067787 80.04339539 -26.78067787 80.04339539 -28.02745056 80.05578613 C-32.02351267 79.99013982 -33.99148173 79.78243367 -37.45092773 77.59179688 C-39.58269555 75.34711374 -40.12192499 74.54255935 -40.0625 71.5 C-40.07539063 70.84 -40.08828125 70.18 -40.1015625 69.5 C-39.06264044 66.37101122 -37.14172076 65.29711604 -34.4375 63.5 C-31.39135742 63.04589844 -31.39135742 63.04589844 -28.04296875 63.109375 C-26.84091797 63.12226563 -25.63886719 63.13515625 -24.40039062 63.1484375 C-23.15451172 63.18195313 -21.90863281 63.21546875 -20.625 63.25 C-19.35978516 63.26804688 -18.09457031 63.28609375 -16.79101562 63.3046875 C-13.67240665 63.35176084 -10.55534027 63.41750906 -7.4375 63.5 C-7.44638245 62.76972595 -7.45526489 62.0394519 -7.4644165 61.28704834 C-7.54460091 54.40122939 -7.60548393 47.51548032 -7.64474869 40.62931442 C-7.66561412 37.08909928 -7.69391126 33.54927026 -7.73925781 30.00927734 C-7.79107738 25.93843909 -7.81045369 21.86800573 -7.828125 17.796875 C-7.84877014 16.52696716 -7.86941528 15.25705933 -7.89068604 13.94866943 C-7.89098816 12.76774719 -7.89129028 11.58682495 -7.89160156 10.37011719 C-7.90048401 9.33087097 -7.90936646 8.29162476 -7.91851807 7.22088623 C-7.06691879 2.40380155 -4.70378789 0.68418733 0 0 Z " fill="#E6E6E6" transform="translate(296.4375,178.5)"/>
<path d="M0 0 C4.6580097 3.0872855 7.63019383 7.17282409 10.875 11.625 C11.36613281 12.28628906 11.85726563 12.94757813 12.36328125 13.62890625 C12.85957031 14.30050781 13.35585938 14.97210938 13.8671875 15.6640625 C14.6413501 16.69285522 14.6413501 16.69285522 15.43115234 17.74243164 C17 20 17 20 18.46337891 22.72436523 C20.10656557 25.60467547 21.5357432 27.7719217 24 30 C28.57316223 31.22634775 32.92223814 31.04110648 37.625 30.8125 C49.87430294 30.41589306 49.87430294 30.41589306 52.92626953 31.99951172 C55.42466498 34.35727785 56.02174561 36.12177543 56.625 39.5 C55.82539635 43.97778044 54.54750634 45.20320956 51 48 C48.16602159 48.53643836 45.93415282 48.77233296 43.1015625 48.76953125 C41.97178482 48.78737923 41.97178482 48.78737923 40.81918335 48.80558777 C39.23077392 48.82208338 37.64218131 48.82551103 36.05371094 48.81665039 C33.6367998 48.81252016 31.22826975 48.87756101 28.8125 48.94726562 C17.73855959 49.08457857 17.73855959 49.08457857 13.58496094 46.4934082 C11.74531398 44.43780046 10.39657861 42.37626439 9 40 C7.84555385 38.45045547 6.6784936 36.91024129 5.5 35.37890625 C4.32960933 33.77615028 3.16296008 32.17065574 2 30.5625 C0.83457141 28.95873499 -0.33209332 27.35586754 -1.5 25.75390625 C-2.06944336 24.97063965 -2.63888672 24.18737305 -3.22558594 23.38037109 C-5.60976066 20.18200792 -8.1141526 17.08479025 -10.64160156 13.9987793 C-12 12 -12 12 -12.75 8.25 C-11.12827671 1.22253241 -6.95393859 -1.11759727 0 0 Z " fill="#E6E6E6" transform="translate(394,234)"/>
<path d="M0 0 C2.69990662 1.79993774 4.5418865 3.083773 6 6 C5.94921875 7.75 5.94921875 7.75 5.6875 10 C5.58953125 10.88816406 5.4915625 11.77632813 5.390625 12.69140625 C5.1795491 14.47921909 4.96776525 16.26695192 4.75195312 18.05419922 C3.45722505 28.81131039 2.29491649 39.11637889 3.55859375 49.9375 C3.66010742 50.83033691 3.76162109 51.72317383 3.86621094 52.64306641 C4.07683351 54.43399843 4.30475806 56.22299895 4.55175781 58.00927734 C5.03066405 61.97372785 5.30989538 64.30250952 3.66015625 68.015625 C1.78352693 70.25874898 0.82415578 71.21551228 -2 72 C-5.97043449 71.92909938 -8.20072069 71.6480643 -11.3125 69.125 C-16.03915039 60.37194372 -15.35211459 49.55160331 -15.3125 39.875 C-15.31134186 39.19423401 -15.31018372 38.51346802 -15.30899048 37.81207275 C-15.21753216 10.62778537 -15.21753216 10.62778537 -9 2 C-5.48746854 -0.34168764 -4.13530644 -0.49623677 0 0 Z " fill="#E6E6E6" transform="translate(367,395)"/>
<path d="M0 0 C1.14662109 0.01546875 1.14662109 0.01546875 2.31640625 0.03125 C3.07824219 0.0209375 3.84007812 0.010625 4.625 0 C7.83949816 0.75766334 8.98325619 1.83309362 10.87890625 4.53125 C10.99609375 7.9296875 10.99609375 7.9296875 10.75390625 11.90625 C10.69380835 18.42236465 12.35187473 21.90184275 16.89892578 26.55712891 C19.37344963 28.86810839 21.88394888 31.11836896 24.49609375 33.27294922 C26.61168722 35.19804963 26.87413542 36.4954688 27.25390625 39.34375 C26.87890625 42.53125 26.87890625 42.53125 24.81640625 45.40625 C21.87890625 47.53125 21.87890625 47.53125 18.69140625 48.34375 C12.7277873 47.07281481 9.29837541 43.57209403 4.87890625 39.53125 C3.93402344 38.82613281 2.98914063 38.12101562 2.015625 37.39453125 C-3.34508168 32.80722214 -5.28819566 29.60397617 -5.8515625 22.62890625 C-6.48109923 1.62325874 -6.48109923 1.62325874 0 0 Z " fill="#E6E6E6" transform="translate(294.12109375,-0.53125)"/>
<path d="M0 0 C2.69990662 1.79993774 4.5418865 3.083773 6 6 C6.5 8.625 6.5 8.625 6 12 C4.7121582 13.76318359 4.7121582 13.76318359 2.98828125 15.6484375 C2.35164551 16.34888184 1.71500977 17.04932617 1.05908203 17.77099609 C0.37958496 18.50656738 -0.29991211 19.24213867 -1 20 C-1.66273926 20.73943848 -2.32547852 21.47887695 -3.00830078 22.24072266 C-5.07593384 24.52782239 -7.18831041 26.76543775 -9.3125 29 C-10.00794922 29.77472656 -10.70339844 30.54945312 -11.41992188 31.34765625 C-15.20474078 35.28164766 -17.75527832 37.50858667 -23.35546875 37.6875 C-26.1044335 37.56139821 -27.52473598 37.34778487 -29.7512207 35.71850586 C-31.74346817 32.97687733 -31.65693712 30.71336745 -31.5390625 27.40283203 C-30.51318422 22.83005392 -27.28894046 20.09229294 -24 16.9375 C-23.31462158 16.24648193 -22.62924316 15.55546387 -21.9230957 14.84350586 C-20.57236249 13.4860486 -19.21234347 12.13775485 -17.84228516 10.79980469 C-15.58344311 8.59304832 -13.38949934 6.32577947 -11.1875 4.0625 C-7.52233611 0.38115437 -5.32578525 -0.52213581 0 0 Z " fill="#E6E6E6" transform="translate(445,88)"/>
<path d="M0 0 C2.94212956 2.20323708 3.89125035 3.38089844 4.53344727 7.03686523 C4.59915496 14.05785452 4.59915496 14.05785452 4.57641602 16.41723633 C4.56255901 18.42893299 4.59661216 20.43596257 4.63476562 22.44726562 C4.63283203 23.72150391 4.63089844 24.99574219 4.62890625 26.30859375 C4.62963135 27.47189209 4.63035645 28.63519043 4.63110352 29.83374023 C3.81252159 33.94058318 2.24435647 35.43200686 -1 38 C-4.5 38.625 -4.5 38.625 -8 38 C-11.24435647 35.43200686 -12.81252159 33.94058318 -13.63110352 29.83374023 C-13.63037842 28.67044189 -13.62965332 27.50714355 -13.62890625 26.30859375 C-13.63083984 25.03435547 -13.63277344 23.76011719 -13.63476562 22.44726562 C-13.62227783 21.78895752 -13.60979004 21.13064941 -13.59692383 20.45239258 C-13.56252307 18.43885007 -13.57629607 16.42968143 -13.59570312 14.41601562 C-13.52146058 4.64074677 -13.52146058 4.64074677 -11.08959961 1.65258789 C-7.13270242 -1.47677735 -4.91130672 -1.10081013 0 0 Z " fill="#E6E6E6" transform="translate(239,2)"/>
</svg>
