<svg width="30" height="30" viewBox="0 0 30 30" fill="none" xmlns="http://www.w3.org/2000/svg">
<path d="M15 0C12.0333 0 9.13319 0.879735 6.66645 2.52796C4.19971 4.17618 2.27713 6.51886 1.14181 9.25975C0.00649929 12.0006 -0.290551 15.0166 0.288227 17.9264C0.867006 20.8361 2.29562 23.5088 4.3934 25.6066C6.49119 27.7044 9.16393 29.133 12.0736 29.7118C14.9834 30.2906 17.9994 29.9935 20.7403 28.8582C23.4811 27.7229 25.8238 25.8003 27.472 23.3335C29.1203 20.8668 30 17.9667 30 15C29.9954 11.0232 28.4136 7.21051 25.6015 4.39846C22.7895 1.5864 18.9768 0.00458074 15 0ZM27.6923 15C27.6933 16.1705 27.5317 17.3355 27.212 18.4615H21.6577C22.0115 16.1674 22.0115 13.8326 21.6577 11.5385H27.212C27.5317 12.6645 27.6933 13.8295 27.6923 15ZM11.25 20.7692H18.75C18.0111 23.1903 16.7284 25.4103 15 27.2596C13.2722 25.4098 11.9896 23.1899 11.25 20.7692ZM10.6875 18.4615C10.2914 16.1708 10.2914 13.8292 10.6875 11.5385H19.324C19.7202 13.8292 19.7202 16.1708 19.324 18.4615H10.6875ZM2.3077 15C2.30669 13.8295 2.46834 12.6645 2.78799 11.5385H8.34231C7.98846 13.8326 7.98846 16.1674 8.34231 18.4615H2.78799C2.46834 17.3355 2.30669 16.1705 2.3077 15ZM18.75 9.23077H11.25C11.9889 6.80972 13.2716 4.58968 15 2.74038C16.7278 4.59017 18.0104 6.81005 18.75 9.23077ZM26.2976 9.23077H21.1601C20.5126 6.85515 19.4213 4.62357 17.9438 2.65385C19.7289 3.08269 21.4002 3.89247 22.8431 5.02768C24.2861 6.16289 25.4664 7.59668 26.3034 9.23077H26.2976ZM12.0563 2.65385C10.5788 4.62357 9.48743 6.85515 8.83991 9.23077H3.69664C4.53357 7.59668 5.71395 6.16289 7.15686 5.02768C8.59977 3.89247 10.2711 3.08269 12.0563 2.65385ZM3.69664 20.7692H8.83991C9.48743 23.1448 10.5788 25.3764 12.0563 27.3461C10.2711 26.9173 8.59977 26.1075 7.15686 24.9723C5.71395 23.8371 4.53357 22.4033 3.69664 20.7692ZM17.9438 27.3461C19.4213 25.3764 20.5126 23.1448 21.1601 20.7692H26.3034C25.4664 22.4033 24.2861 23.8371 22.8431 24.9723C21.4002 26.1075 19.7289 26.9173 17.9438 27.3461Z" fill="#FDFDFD"/>
</svg>
